# xmcd CD database file generated by Grip 2.94
# 
# Track frame offsets:
#       150
#       11732
#       23190
#       36440
#       48715
#       60867
#       72332
#       86992
# 
# Disc length: 1298 seconds
# 
# Revision: 3
# Processed by: cddbd v1.4b41PL1 Copyright (c) Steve Scherf et al.
# Submitted via: Grip 2.94
# 
DISCID=6b051008
DTITLE=Johnny Paycheck - Take This Job And Shove It
DYEAR=1900
DGENRE=
TTITLE0=Take This Job An Shove It
TTITLE1=Heartaches By The Number
TTITLE2=Don't Take Her (She's All I Got)
TTITLE3=Crazy Arms
TTITLE4=There Goes My Everthing
TTITLE5=Release Me
TTITLE6=Green, Green Grass Of Home
TTITLE7=Don't Monkey Around With Another Monkey's Monkey
EXTD=
EXTT0=
EXTT1=
EXTT2=
EXTT3=
EXTT4=
EXTT5=
EXTT6=
EXTT7=
PLAYORDER=
